<svg xmlns="http://www.w3.org/2000/svg" width="30" height="30" viewBox="0 0 24 24" fill="none" stroke="currentColor" stroke-width="1.5" stroke-linecap="round" stroke-linejoin="round">
  <path d="M23.498 6.186a2.858 2.858 0 00-2.011-2.016C19.785 4 12 4 12 4s-7.785 0-9.487.17a2.857 2.857 0 00-2.011 2.016A29.654 29.654 0 000 12a29.654 29.654 0 00.502 5.814 2.858 2.858 0 002.011 2.016C4.215 20 12 20 12 20s7.785 0 9.487-.17a2.858 2.858 0 002.011-2.016A29.654 29.654 0 0024 12a29.654 29.654 0 00-.502-5.814zM9 15.032V8.968l5.5 3.032-5.5 3.032z" stroke="#fff" fill="none"/>
</svg>
